<svg xmlns="http://www.w3.org/2000/svg" xmlns:xlink="http://www.w3.org/1999/xlink" width="300" zoomAndPan="magnify" viewBox="0 0 375 374.999991" height="300" preserveAspectRatio="xMidYMid meet" version="1.0"><defs><g/><clipPath id="7baa04b942"><path d="M 114.171875 91.605469 L 261.171875 91.605469 L 261.171875 222.855469 L 114.171875 222.855469 Z M 114.171875 91.605469 " clip-rule="nonzero"/></clipPath><clipPath id="b8431d30b7"><path d="M 166.535156 137.117188 L 187.585938 137.117188 L 187.585938 158.167969 L 166.535156 158.167969 Z M 166.535156 137.117188 " clip-rule="nonzero"/></clipPath><clipPath id="7a87e3cd39"><path d="M 177.0625 137.117188 C 171.25 137.117188 166.535156 141.828125 166.535156 147.644531 C 166.535156 153.457031 171.25 158.167969 177.0625 158.167969 C 182.875 158.167969 187.585938 153.457031 187.585938 147.644531 C 187.585938 141.828125 182.875 137.117188 177.0625 137.117188 Z M 177.0625 137.117188 " clip-rule="nonzero"/></clipPath><clipPath id="534c1dedeb"><path d="M 167.285156 174.191406 L 188.335938 174.191406 L 188.335938 195.238281 L 167.285156 195.238281 Z M 167.285156 174.191406 " clip-rule="nonzero"/></clipPath><clipPath id="c74ab8ed05"><path d="M 177.8125 174.191406 C 172 174.191406 167.285156 178.902344 167.285156 184.714844 C 167.285156 190.527344 172 195.238281 177.8125 195.238281 C 183.625 195.238281 188.335938 190.527344 188.335938 184.714844 C 188.335938 178.902344 183.625 174.191406 177.8125 174.191406 Z M 177.8125 174.191406 " clip-rule="nonzero"/></clipPath><clipPath id="f23cc9ed81"><path d="M 184.484375 155.917969 L 205.535156 155.917969 L 205.535156 176.96875 L 184.484375 176.96875 Z M 184.484375 155.917969 " clip-rule="nonzero"/></clipPath><clipPath id="041bdb1842"><path d="M 195.011719 155.917969 C 189.195312 155.917969 184.484375 160.628906 184.484375 166.441406 C 184.484375 172.253906 189.195312 176.96875 195.011719 176.96875 C 200.824219 176.96875 205.535156 172.253906 205.535156 166.441406 C 205.535156 160.628906 200.824219 155.917969 195.011719 155.917969 Z M 195.011719 155.917969 " clip-rule="nonzero"/></clipPath></defs><rect x="-37.5" width="450" fill="#ffffff" y="-37.499999" height="449.999989" fill-opacity="1"/><rect x="-37.5" width="450" fill="#0b132b" y="-37.499999" height="449.999989" fill-opacity="1"/><g clip-path="url(#7baa04b942)"><path fill="#14b7dc" d="M 183.976562 176.644531 L 187.410156 172.769531 C 189.039062 174.738281 191.308594 176.011719 193.984375 176.355469 L 193.984375 195.511719 L 175.25 206.160156 L 156.578125 216.925781 L 119.234375 195.511719 L 119.234375 152.570312 L 129.527344 146.609375 L 129.527344 140.824219 L 114.171875 149.679688 L 114.171875 198.40625 L 156.578125 222.769531 L 198.984375 198.40625 L 198.984375 175.664062 C 202.652344 174.15625 205.152344 170.570312 205.152344 166.402344 C 205.152344 160.90625 200.613281 156.390625 195.089844 156.390625 C 191.832031 156.390625 188.921875 157.894531 187.0625 160.269531 L 183.570312 156.273438 C 186.070312 154.597656 187.640625 151.878906 187.933594 148.808594 L 200.148438 141.75 L 218.824219 131.042969 L 256.167969 152.457031 L 256.167969 195.398438 L 237.4375 206.160156 L 218.765625 216.867188 L 200.089844 206.160156 L 197.183594 204.539062 L 192.121094 207.433594 L 218.765625 222.710938 L 261.171875 198.347656 L 261.171875 149.621094 L 218.765625 125.253906 L 186.828125 143.601562 C 185.199219 140.300781 181.765625 137.988281 177.8125 137.988281 C 172.285156 137.988281 167.746094 142.5 167.746094 148 C 167.746094 153.324219 171.996094 157.78125 177.402344 158.011719 L 177.402344 174.621094 C 173.796875 174.792969 170.773438 176.761719 169.027344 179.714844 L 156.460938 172.480469 L 137.789062 161.773438 L 137.789062 118.832031 L 156.460938 108.125 L 175.136719 97.417969 L 212.480469 118.832031 L 212.480469 125.023438 L 217.542969 122.128906 L 217.542969 115.9375 L 175.195312 91.691406 L 132.785156 116.054688 L 132.785156 164.78125 L 167.746094 184.921875 C 167.804688 190.421875 172.285156 194.875 177.8125 194.875 C 183.335938 194.875 187.875 190.363281 187.875 184.863281 C 187.992188 181.390625 186.363281 178.5 183.976562 176.644531 Z M 186.886719 172.015625 L 183.28125 176.066406 C 181.824219 175.140625 180.195312 174.621094 178.394531 174.5625 L 178.394531 158.011719 C 180.023438 157.953125 181.535156 157.492188 182.929688 156.738281 L 186.710938 160.964844 C 185.664062 162.46875 185.199219 164.378906 185.199219 166.289062 C 185.082031 168.488281 185.78125 170.453125 186.886719 172.015625 Z M 186.886719 172.015625 " fill-opacity="1" fill-rule="evenodd"/></g><g clip-path="url(#b8431d30b7)"><g clip-path="url(#7a87e3cd39)"><path fill="#6ee4ff" d="M 166.535156 137.117188 L 187.585938 137.117188 L 187.585938 158.167969 L 166.535156 158.167969 Z M 166.535156 137.117188 " fill-opacity="1" fill-rule="nonzero"/></g></g><g clip-path="url(#534c1dedeb)"><g clip-path="url(#c74ab8ed05)"><path fill="#6ee4ff" d="M 167.285156 174.191406 L 188.335938 174.191406 L 188.335938 195.238281 L 167.285156 195.238281 Z M 167.285156 174.191406 " fill-opacity="1" fill-rule="nonzero"/></g></g><g clip-path="url(#f23cc9ed81)"><g clip-path="url(#041bdb1842)"><path fill="#6ee4ff" d="M 184.484375 155.917969 L 205.535156 155.917969 L 205.535156 176.96875 L 184.484375 176.96875 Z M 184.484375 155.917969 " fill-opacity="1" fill-rule="nonzero"/></g></g><g fill="#06ecfc" fill-opacity="1"><g transform="translate(68.442679, 262.989153)"><g><path d="M 19.65625 -11.84375 L 23.203125 -11.84375 L 23.203125 -2.96875 C 21.960938 -2.019531 20.5 -1.257812 18.8125 -0.6875 C 17.125 -0.113281 15.46875 0.171875 13.84375 0.171875 C 10.28125 0.171875 7.273438 -1.003906 4.828125 -3.359375 C 2.390625 -5.710938 1.171875 -8.609375 1.171875 -12.046875 C 1.171875 -15.492188 2.410156 -18.378906 4.890625 -20.703125 C 7.367188 -23.035156 10.429688 -24.203125 14.078125 -24.203125 C 15.785156 -24.203125 17.457031 -23.898438 19.09375 -23.296875 C 20.738281 -22.691406 22.15625 -21.867188 23.34375 -20.828125 L 21.046875 -17.84375 C 19.066406 -19.675781 16.742188 -20.59375 14.078125 -20.59375 C 11.628906 -20.59375 9.550781 -19.765625 7.84375 -18.109375 C 6.144531 -16.460938 5.296875 -14.441406 5.296875 -12.046875 C 5.296875 -9.640625 6.148438 -7.609375 7.859375 -5.953125 C 9.578125 -4.304688 11.664062 -3.484375 14.125 -3.484375 C 15.976562 -3.484375 17.820312 -4.03125 19.65625 -5.125 Z M 19.65625 -11.84375 "/></g></g></g><g fill="#06ecfc" fill-opacity="1"><g transform="translate(94.919365, 262.989153)"><g><path d="M 7.234375 0 L 3.171875 0 L 3.171875 -24.109375 L 7.234375 -24.109375 Z M 7.234375 0 "/></g></g></g><g fill="#06ecfc" fill-opacity="1"><g transform="translate(106.005968, 262.989153)"><g><path d="M 18.734375 -5.4375 L 6.578125 -5.4375 L 4.265625 0 L 0.03125 0 L 10.671875 -24.109375 L 14.84375 -24.109375 L 25.375 0 L 21.046875 0 Z M 17.1875 -9.0625 L 12.640625 -19.765625 L 8.09375 -9.0625 Z M 17.1875 -9.0625 "/></g></g></g><g fill="#06ecfc" fill-opacity="1"><g transform="translate(132.103938, 262.989153)"><g><path d="M 24.078125 0 L 20.078125 0 L 7.234375 -17.28125 L 7.234375 0 L 3.171875 0 L 3.171875 -24.109375 L 7.15625 -24.109375 L 20.078125 -6.78125 L 20.078125 -24.109375 L 24.078125 -24.109375 Z M 24.078125 0 "/></g></g></g><g fill="#06ecfc" fill-opacity="1"><g transform="translate(160.061097, 262.989153)"><g/></g></g><g fill="#06ecfc" fill-opacity="1"><g transform="translate(169.632786, 262.989153)"><g><path d="M 19.25 0 L 11.328125 -10.640625 L 7.234375 -6.125 L 7.234375 0 L 3.171875 0 L 3.171875 -24.109375 L 7.234375 -24.109375 L 7.234375 -11.640625 L 18.734375 -24.109375 L 23.515625 -24.109375 L 14.1875 -13.8125 L 24.140625 0 Z M 19.25 0 "/></g></g></g><g fill="#06ecfc" fill-opacity="1"><g transform="translate(195.042147, 262.989153)"><g><path d="M 18.453125 0 L 14.046875 -7.296875 C 13.816406 -7.273438 13.453125 -7.265625 12.953125 -7.265625 L 7.234375 -7.265625 L 7.234375 0 L 3.171875 0 L 3.171875 -24.109375 L 12.953125 -24.109375 C 16.023438 -24.109375 18.410156 -23.390625 20.109375 -21.953125 C 21.804688 -20.515625 22.65625 -18.488281 22.65625 -15.875 C 22.65625 -13.945312 22.222656 -12.316406 21.359375 -10.984375 C 20.503906 -9.648438 19.273438 -8.675781 17.671875 -8.0625 L 23.078125 0 Z M 7.234375 -10.921875 L 12.953125 -10.921875 C 16.847656 -10.921875 18.796875 -12.535156 18.796875 -15.765625 C 18.796875 -18.890625 16.847656 -20.453125 12.953125 -20.453125 L 7.234375 -20.453125 Z M 7.234375 -10.921875 "/></g></g></g><g fill="#06ecfc" fill-opacity="1"><g transform="translate(220.623662, 262.989153)"><g><path d="M 20.390625 -20.453125 L 7.234375 -20.453125 L 7.234375 -13.953125 L 19.015625 -13.953125 L 19.015625 -10.296875 L 7.234375 -10.296875 L 7.234375 -3.65625 L 20.796875 -3.65625 L 20.796875 0 L 3.171875 0 L 3.171875 -24.109375 L 20.390625 -24.109375 Z M 20.390625 -20.453125 "/></g></g></g><g fill="#06ecfc" fill-opacity="1"><g transform="translate(243.898379, 262.989153)"><g><path d="M 19.625 -20.453125 L 11.984375 -20.453125 L 11.984375 0 L 7.921875 0 L 7.921875 -20.453125 L 0.3125 -20.453125 L 0.3125 -24.109375 L 19.625 -24.109375 Z M 19.625 -20.453125 "/></g></g></g><g fill="#06ecfc" fill-opacity="1"><g transform="translate(264.522027, 262.989153)"><g><path d="M 21.453125 -21.171875 L 6.78125 -3.65625 L 21.625 -3.65625 L 21.625 0 L 1.28125 0 L 1.28125 -2.921875 L 15.984375 -20.453125 L 1.71875 -20.453125 L 1.71875 -24.109375 L 21.453125 -24.109375 Z M 21.453125 -21.171875 "/></g></g></g><g fill="#06ecfc" fill-opacity="1"><g transform="translate(288.141052, 262.989153)"><g><path d="M 7.234375 -3.6875 L 17.671875 -3.6875 L 17.671875 0 L 3.171875 0 L 3.171875 -24.109375 L 7.234375 -24.109375 Z M 7.234375 -3.6875 "/></g></g></g><g fill="#ffffff" fill-opacity="1"><g transform="translate(154.245683, 280.840762)"><g><path d="M 1.546875 -3.78125 L 5.234375 -2.296875 L 5.234375 -1.140625 L 0.421875 -3.375 L 0.421875 -4.234375 L 5.234375 -6.453125 L 5.234375 -5.296875 Z M 1.546875 -3.78125 "/></g></g></g><g fill="#ffffff" fill-opacity="1"><g transform="translate(163.590664, 280.840762)"><g/></g></g><g fill="#ffffff" fill-opacity="1"><g transform="translate(169.797573, 280.840762)"><g><path d="M 1 0 L 1 -8.546875 L 3.40625 -8.546875 C 4.15625 -8.546875 4.8125 -8.378906 5.375 -8.046875 C 5.945312 -7.722656 6.390625 -7.257812 6.703125 -6.65625 C 7.015625 -6.050781 7.171875 -5.351562 7.171875 -4.5625 L 7.171875 -4.015625 C 7.171875 -3.210938 7.015625 -2.503906 6.703125 -1.890625 C 6.398438 -1.285156 5.957031 -0.820312 5.375 -0.5 C 4.800781 -0.175781 4.128906 -0.0078125 3.359375 0 Z M 2.125 -7.625 L 2.125 -0.921875 L 3.3125 -0.921875 C 4.175781 -0.921875 4.847656 -1.191406 5.328125 -1.734375 C 5.816406 -2.273438 6.0625 -3.046875 6.0625 -4.046875 L 6.0625 -4.546875 C 6.0625 -5.515625 5.832031 -6.265625 5.375 -6.796875 C 4.914062 -7.335938 4.269531 -7.613281 3.4375 -7.625 Z M 2.125 -7.625 "/></g></g></g><g fill="#ffffff" fill-opacity="1"><g transform="translate(180.91727, 280.840762)"><g><path d="M 5.828125 -3.953125 L 2.125 -3.953125 L 2.125 -0.921875 L 6.421875 -0.921875 L 6.421875 0 L 1 0 L 1 -8.546875 L 6.375 -8.546875 L 6.375 -7.625 L 2.125 -7.625 L 2.125 -4.875 L 5.828125 -4.875 Z M 5.828125 -3.953125 "/></g></g></g><g fill="#ffffff" fill-opacity="1"><g transform="translate(190.98506, 280.840762)"><g><path d="M 3.828125 -1.5 L 6.265625 -8.546875 L 7.5 -8.546875 L 4.328125 0 L 3.328125 0 L 0.171875 -8.546875 L 1.390625 -8.546875 Z M 3.828125 -1.5 "/></g></g></g><g fill="#ffffff" fill-opacity="1"><g transform="translate(201.869695, 280.840762)"><g/></g></g><g fill="#ffffff" fill-opacity="1"><g transform="translate(208.076604, 280.840762)"><g><path d="M 4.671875 -3.8125 L 0.78125 -5.34375 L 0.78125 -6.453125 L 5.796875 -4.234375 L 5.796875 -3.375 L 0.78125 -1.15625 L 0.78125 -2.28125 Z M 4.671875 -3.8125 "/></g></g></g></svg>